<svg width="535" height="300" viewBox="0 0 535 300" fill="none" xmlns="http://www.w3.org/2000/svg">
<g clip-path="url(#clip0_143_2824)">
<path d="M60.0518 78.2207H119.644V89.3761H96.2847V151.926H83.4107V89.3761H60.0518V78.2207Z" fill="white"/>
<path d="M126.545 78.2207H138.357V105.578H138.623C140.083 103.188 142.206 101.195 145.126 99.6018C147.913 98.0082 151.099 97.2114 154.682 97.2114C160.522 97.2114 165.167 98.6722 168.485 101.727C171.803 104.781 173.529 109.296 173.529 115.405V152.059H161.716V118.327C161.584 114.077 160.655 111.023 159.062 109.164C157.469 107.304 154.815 106.375 151.364 106.375C149.373 106.375 147.648 106.773 146.055 107.437C144.463 108.101 143.135 109.164 142.074 110.492C141.012 111.82 140.083 113.28 139.552 115.007C138.888 116.733 138.623 118.593 138.623 120.452V151.926H126.811V78.2207H126.545Z" fill="white"/>
<path d="M186.137 78.2207H197.949V89.3761H186.137V78.2207ZM186.137 98.5394H197.949V151.926H186.137V98.5394Z" fill="white"/>
<path d="M219.583 134.794C219.981 138.247 221.176 140.638 223.565 141.966C225.821 143.294 228.608 144.091 231.661 144.091C232.722 144.091 234.05 143.958 235.377 143.825C236.837 143.692 238.164 143.294 239.358 142.895C240.553 142.364 241.615 141.7 242.411 140.771C243.207 139.841 243.605 138.646 243.473 137.052C243.34 135.591 242.809 134.263 241.88 133.334C240.818 132.404 239.491 131.607 237.898 131.076C236.306 130.545 234.448 130.014 232.324 129.615C230.201 129.217 228.21 128.818 226.086 128.287C223.83 127.756 221.706 127.225 219.716 126.561C217.725 125.897 215.867 124.967 214.274 123.772C212.681 122.577 211.354 121.116 210.425 119.257C209.496 117.397 208.965 115.14 208.965 112.484C208.965 109.562 209.629 107.172 211.089 105.18C212.549 103.188 214.274 101.594 216.398 100.399C218.521 99.2035 220.91 98.4066 223.565 97.8754C226.219 97.3442 228.741 97.2114 231.13 97.2114C233.917 97.2114 236.571 97.477 238.96 98.141C241.482 98.6723 243.738 99.7347 245.729 100.93C247.72 102.258 249.445 103.984 250.772 105.976C252.1 108.101 252.896 110.624 253.294 113.546H241.084C240.553 110.757 239.226 108.898 237.235 107.836C235.244 106.906 232.855 106.375 230.333 106.375C229.537 106.375 228.475 106.508 227.413 106.64C226.219 106.773 225.157 107.039 224.228 107.437C223.166 107.836 222.37 108.367 221.706 109.031C221.043 109.695 220.645 110.757 220.645 111.82C220.645 113.28 221.176 114.476 222.105 115.273C223.166 116.202 224.361 116.866 226.086 117.53C227.679 118.061 229.537 118.593 231.661 118.991C233.784 119.389 235.908 119.788 238.031 120.319C240.155 120.85 242.278 121.381 244.269 122.045C246.393 122.709 248.118 123.639 249.843 124.834C251.436 126.029 252.763 127.49 253.825 129.217C254.754 130.943 255.285 133.201 255.285 135.857C255.285 139.044 254.621 141.7 253.161 143.958C251.701 146.215 249.843 147.942 247.587 149.27C245.331 150.598 242.676 151.66 239.889 152.324C237.102 152.988 234.315 153.254 231.528 153.254C228.21 153.254 225.024 152.856 222.237 152.059C219.317 151.262 216.928 150.199 214.805 148.606C212.681 147.012 211.089 145.153 209.894 142.763C208.7 140.505 208.036 137.716 208.036 134.529H219.583V134.794Z" fill="white"/>
<path d="M313.682 122.975L286.076 78.2207H301.074L320.584 111.288L339.829 78.2207H354.295L326.822 122.975V151.926H313.948V122.975H313.682Z" fill="white"/>
<path d="M359.339 128.287C359.339 130.412 359.604 132.404 360.268 134.263C360.799 136.255 361.728 137.849 362.922 139.31C364.117 140.771 365.576 141.966 367.302 142.763C369.027 143.559 371.283 144.091 373.672 144.091C377.123 144.091 379.91 143.294 382.034 141.833C384.157 140.372 385.75 138.114 386.679 135.193H397.828C397.164 138.114 396.102 140.638 394.642 142.895C393.183 145.153 391.324 147.012 389.201 148.606C387.077 150.199 384.688 151.262 382.034 152.059C379.38 152.855 376.592 153.254 373.672 153.254C369.425 153.254 365.709 152.59 362.524 151.129C359.339 149.801 356.551 147.809 354.295 145.286C352.039 142.763 350.314 139.841 349.252 136.388C348.057 132.935 347.526 129.217 347.526 125.1C347.526 121.381 348.19 117.663 349.384 114.343C350.579 110.89 352.304 107.968 354.561 105.312C356.817 102.789 359.471 100.664 362.657 99.2034C365.842 97.7426 369.425 96.9458 373.407 96.9458C377.654 96.9458 381.37 97.8754 384.688 99.6018C388.006 101.328 390.794 103.719 393.05 106.508C395.306 109.429 396.899 112.749 397.828 116.468C398.89 120.186 399.022 124.037 398.624 128.022H359.339V128.287ZM386.812 120.452C386.679 118.593 386.281 116.866 385.617 115.14C384.954 113.413 384.025 111.952 382.963 110.624C381.768 109.296 380.441 108.367 378.849 107.57C377.256 106.773 375.398 106.375 373.407 106.375C371.283 106.375 369.425 106.773 367.833 107.437C366.107 108.101 364.647 109.164 363.453 110.492C362.258 111.82 361.329 113.28 360.533 115.007C359.869 116.733 359.471 118.593 359.339 120.585H386.812V120.452Z" fill="white"/>
<path d="M452.243 139.974C452.243 141.434 452.376 142.497 452.774 143.028C453.173 143.692 453.836 143.958 455.031 143.958C455.429 143.958 455.827 143.958 456.225 143.958C456.756 143.958 457.287 143.825 457.818 143.692V151.793C457.42 151.926 456.889 152.059 456.225 152.324C455.562 152.457 454.898 152.59 454.234 152.723C453.571 152.855 452.907 152.988 452.111 152.988C451.447 153.121 450.784 153.121 450.385 153.121C447.996 153.121 446.006 152.59 444.413 151.66C442.82 150.731 441.758 149.004 441.36 146.614C438.971 148.871 436.184 150.598 432.733 151.527C429.283 152.59 426.097 153.121 422.912 153.121C420.523 153.121 418.267 152.855 416.011 152.191C413.754 151.527 411.896 150.598 410.171 149.27C408.445 147.942 407.118 146.348 406.189 144.356C405.127 142.364 404.729 140.106 404.729 137.45C404.729 134.13 405.393 131.474 406.587 129.35C407.782 127.225 409.374 125.631 411.365 124.436C413.356 123.241 415.48 122.444 418.001 121.913C420.39 121.381 422.912 120.983 425.434 120.717C427.557 120.319 429.548 120.053 431.539 119.788C433.53 119.655 435.122 119.389 436.582 118.858C438.042 118.46 439.237 117.796 440.033 116.999C440.829 116.202 441.36 114.874 441.36 113.148C441.36 111.687 440.962 110.359 440.299 109.429C439.635 108.5 438.706 107.703 437.644 107.172C436.582 106.64 435.388 106.375 434.061 106.109C432.733 105.976 431.539 105.844 430.344 105.844C427.026 105.844 424.372 106.508 422.248 107.968C420.125 109.296 418.93 111.421 418.665 114.343H406.853C407.118 110.89 407.915 108.101 409.374 105.844C410.834 103.586 412.693 101.727 414.949 100.399C417.205 99.0706 419.727 98.0082 422.514 97.477C425.301 96.9458 428.221 96.6802 431.141 96.6802C433.795 96.6802 436.317 96.9458 438.839 97.477C441.36 98.0082 443.617 98.9378 445.74 100.133C447.731 101.328 449.456 102.922 450.651 104.914C451.845 106.906 452.509 109.296 452.509 112.085V139.974H452.243ZM440.431 125.1C438.706 126.295 436.45 126.959 433.795 127.225C431.141 127.49 428.619 127.889 425.965 128.287C424.77 128.553 423.576 128.818 422.381 129.217C421.187 129.615 420.125 130.146 419.329 130.81C418.4 131.474 417.736 132.271 417.205 133.334C416.674 134.396 416.409 135.724 416.409 137.185C416.409 138.513 416.807 139.575 417.603 140.505C418.4 141.434 419.329 142.099 420.39 142.63C421.452 143.161 422.647 143.559 423.841 143.692C425.168 143.958 426.23 143.958 427.292 143.958C428.619 143.958 429.946 143.825 431.539 143.427C432.999 143.028 434.459 142.497 435.786 141.7C437.113 140.903 438.308 139.841 439.104 138.513C440.033 137.185 440.431 135.724 440.431 133.865V125.1Z" fill="white"/>
<path d="M464.852 98.5394H475.868V108.898H476.133C476.532 107.437 477.195 106.109 478.124 104.648C479.053 103.32 480.38 101.992 481.708 100.93C483.168 99.7347 484.628 98.9378 486.353 98.141C488.078 97.477 489.804 97.0786 491.662 97.0786C492.989 97.0786 493.918 97.0786 494.449 97.2114C494.98 97.3442 495.511 97.3442 496.042 97.477V108.765C495.245 108.632 494.316 108.5 493.52 108.367C492.724 108.234 491.794 108.234 490.998 108.234C489.007 108.234 487.149 108.632 485.424 109.429C483.698 110.226 482.106 111.421 480.779 112.882C479.451 114.476 478.39 116.335 477.726 118.593C476.93 120.85 476.532 123.506 476.532 126.428V151.793H464.852V98.5394Z" fill="white"/>
<path d="M81.5527 169.721H95.223L128.802 224.037H129.067V169.721H141.277V243.426H127.74L94.1613 189.243H93.8958V243.426H81.6855V169.721H81.5527Z" fill="white"/>
<path d="M164.105 219.788C164.105 221.912 164.371 223.904 165.034 225.764C165.565 227.756 166.494 229.349 167.689 230.81C168.883 232.271 170.343 233.466 172.069 234.263C173.794 235.06 176.05 235.591 178.439 235.591C181.89 235.591 184.677 234.794 186.801 233.333C188.924 231.873 190.517 229.615 191.446 226.693H202.595C201.931 229.615 200.869 232.138 199.409 234.396C197.949 236.653 196.091 238.513 193.968 240.106C191.844 241.7 189.455 242.762 186.801 243.559C184.146 244.356 181.359 244.754 178.439 244.754C174.192 244.754 170.476 244.09 167.291 242.63C164.105 241.302 161.318 239.309 159.062 236.786C156.806 234.263 155.08 231.341 154.019 227.889C152.824 224.436 152.293 220.717 152.293 216.6C152.293 212.882 152.957 209.163 154.151 205.843C155.346 202.391 157.071 199.469 159.327 196.813C161.584 194.29 164.238 192.165 167.423 190.704C170.609 189.243 174.192 188.446 178.174 188.446C182.421 188.446 186.137 189.376 189.455 191.102C192.773 192.829 195.56 195.219 197.817 198.008C200.073 200.93 201.666 204.25 202.595 207.968C203.656 211.687 203.789 215.538 203.391 219.522H164.105V219.788ZM191.579 212.085C191.446 210.226 191.048 208.499 190.384 206.773C189.721 205.047 188.792 203.586 187.73 202.258C186.535 200.93 185.208 200 183.615 199.203C182.023 198.406 180.165 198.008 178.174 198.008C176.05 198.008 174.192 198.406 172.6 199.07C170.874 199.734 169.414 200.797 168.22 202.125C167.025 203.453 166.096 204.914 165.3 206.64C164.636 208.367 164.238 210.226 164.105 212.218H191.579V212.085Z" fill="white"/>
<path d="M226.617 215.405L208.169 190.173H222.37L233.519 206.64L245.198 190.173H258.868L240.686 214.874L261.125 243.559H247.056L233.519 223.905L220.379 243.559H206.576L226.617 215.405Z" fill="white"/>
<path d="M262.319 190.04H271.211V174.104H283.024V190.04H293.641V198.805H283.024V227.225C283.024 228.42 283.024 229.482 283.156 230.412C283.289 231.342 283.555 232.006 283.82 232.67C284.218 233.334 284.749 233.732 285.545 233.998C286.342 234.263 287.271 234.396 288.598 234.396C289.394 234.396 290.191 234.396 291.12 234.396C291.916 234.396 292.712 234.263 293.641 233.998V243.028C292.314 243.161 291.12 243.294 289.792 243.427C288.598 243.559 287.271 243.692 285.944 243.692C282.891 243.692 280.369 243.427 278.511 242.763C276.653 242.099 275.193 241.302 274.131 240.239C273.07 239.044 272.406 237.716 272.008 235.99C271.61 234.263 271.344 232.271 271.344 230.146V198.672H262.452V190.04H262.319Z" fill="white"/>
<path d="M351.508 214.608L323.902 169.854H338.899L358.409 202.922L377.654 169.854H392.121L364.647 214.608V243.559H351.773V214.608H351.508Z" fill="white"/>
<path d="M397.164 219.788C397.164 221.912 397.43 223.904 398.093 225.764C398.624 227.756 399.553 229.349 400.748 230.81C401.942 232.271 403.402 233.466 405.128 234.263C406.853 235.06 409.109 235.591 411.498 235.591C414.949 235.591 417.736 234.794 419.86 233.333C421.983 231.873 423.576 229.615 424.505 226.693H435.653C434.99 229.615 433.928 232.138 432.468 234.396C431.008 236.653 429.15 238.513 427.027 240.106C424.903 241.7 422.514 242.762 419.86 243.559C417.205 244.356 414.418 244.754 411.498 244.754C407.251 244.754 403.535 244.09 400.35 242.63C397.164 241.302 394.377 239.309 392.121 236.786C389.865 234.263 388.139 231.341 387.077 227.889C385.883 224.436 385.352 220.717 385.352 216.6C385.352 212.882 386.016 209.163 387.21 205.843C388.405 202.391 390.13 199.469 392.386 196.813C394.643 194.29 397.297 192.165 400.482 190.704C403.668 189.243 407.251 188.446 411.233 188.446C415.48 188.446 419.196 189.376 422.514 191.102C425.832 192.829 428.619 195.219 430.875 198.008C433.132 200.93 434.724 204.25 435.653 207.968C436.715 211.687 436.848 215.538 436.45 219.522H397.164V219.788ZM424.638 212.085C424.505 210.226 424.107 208.499 423.443 206.773C422.779 205.047 421.85 203.586 420.789 202.258C419.594 200.93 418.267 200 416.674 199.203C415.082 198.406 413.224 198.008 411.233 198.008C409.109 198.008 407.251 198.406 405.658 199.07C403.933 199.734 402.473 200.797 401.279 202.125C400.084 203.453 399.155 204.914 398.359 206.64C397.695 208.367 397.297 210.226 397.164 212.218H424.638V212.085Z" fill="white"/>
<path d="M490.069 231.607C490.069 233.068 490.202 234.13 490.6 234.661C490.998 235.325 491.662 235.591 492.856 235.591C493.254 235.591 493.653 235.591 494.051 235.591C494.582 235.591 495.113 235.458 495.643 235.325V243.426C495.245 243.559 494.714 243.692 494.051 243.958C493.387 244.09 492.724 244.223 492.06 244.356C491.396 244.489 490.733 244.622 489.936 244.622C489.273 244.754 488.609 244.754 488.211 244.754C485.822 244.754 483.831 244.223 482.239 243.294C480.646 242.364 479.584 240.637 479.186 238.247C476.797 240.505 474.01 242.231 470.559 243.161C467.108 244.223 463.923 244.754 460.738 244.754C458.349 244.754 456.092 244.489 453.836 243.825C451.58 243.161 449.722 242.231 447.996 240.903C446.271 239.575 444.944 237.981 444.015 235.989C442.953 233.997 442.555 231.74 442.555 229.084C442.555 225.764 443.219 223.108 444.413 220.983C445.608 218.858 447.2 217.264 449.191 216.069C451.182 214.874 453.305 214.077 455.827 213.546C458.216 213.015 460.738 212.616 463.259 212.351C465.383 211.952 467.374 211.687 469.365 211.421C471.355 211.288 472.948 211.023 474.408 210.491C475.868 210.093 477.062 209.429 477.859 208.632C478.655 207.835 479.186 206.507 479.186 204.781C479.186 203.32 478.788 201.992 478.124 201.062C477.461 200.133 476.532 199.336 475.47 198.805C474.408 198.274 473.214 198.008 471.886 197.742C470.559 197.61 469.365 197.477 468.17 197.477C464.852 197.477 462.198 198.141 460.074 199.602C457.951 200.93 456.756 203.055 456.491 205.976H444.678C444.944 202.523 445.74 199.734 447.2 197.477C448.66 195.219 450.518 193.36 452.774 192.032C455.031 190.704 457.552 189.641 460.34 189.11C463.127 188.579 466.047 188.313 468.966 188.313C471.621 188.313 474.143 188.579 476.664 189.11C479.186 189.641 481.442 190.571 483.566 191.766C485.557 192.962 487.282 194.555 488.476 196.547C489.671 198.539 490.335 200.93 490.335 203.719V231.607H490.069ZM478.257 216.733C476.532 217.928 474.275 218.592 471.621 218.858C468.966 219.124 466.445 219.522 463.79 219.92C462.596 220.186 461.401 220.452 460.207 220.85C459.012 221.248 457.951 221.78 457.154 222.444C456.225 223.108 455.562 223.904 455.031 224.967C454.5 226.029 454.234 227.357 454.234 228.818C454.234 230.146 454.633 231.209 455.429 232.138C456.225 233.068 457.154 233.732 458.216 234.263C459.278 234.794 460.472 235.193 461.667 235.325C462.994 235.591 464.056 235.591 465.118 235.591C466.445 235.591 467.772 235.458 469.365 235.06C470.825 234.661 472.284 234.13 473.612 233.333C474.939 232.537 476.133 231.474 476.93 230.146C477.859 228.818 478.257 227.357 478.257 225.498V216.733Z" fill="white"/>
<path d="M502.678 190.04H513.694V200.398H513.959C514.357 198.938 515.021 197.61 515.95 196.149C516.879 194.821 518.206 193.493 519.533 192.43C520.993 191.235 522.453 190.438 524.179 189.642C525.904 188.978 527.629 188.579 529.487 188.579C530.815 188.579 531.744 188.579 532.275 188.712C532.805 188.845 533.336 188.845 533.867 188.978V200.266C533.071 200.133 532.142 200 531.345 199.867C530.549 199.734 529.62 199.734 528.824 199.734C526.833 199.734 524.975 200.133 523.249 200.93C521.524 201.727 519.931 202.922 518.604 204.383C517.277 205.976 516.215 207.835 515.552 210.093C514.755 212.351 514.357 215.007 514.357 217.928V243.294H502.545V190.04H502.678Z" fill="white"/>
<path d="M65.8914 9.56189C67.2186 9.42909 68.4131 9.03068 69.3422 8.63227C70.2712 8.10106 71.2003 7.30425 71.8639 6.24184C72.5275 5.17942 73.0584 3.71859 73.3238 1.72656H76.3764V43.8248H72.5275V12.6163H61.3789V9.96029C63.1043 9.82749 64.5642 9.69469 65.8914 9.56189Z" fill="white"/>
<path d="M91.1084 43.8248C91.1084 41.7 91.5066 39.8407 92.1702 38.2471C92.8338 36.6535 93.7628 35.1927 94.8246 33.8646C95.8864 32.5366 97.2136 31.4742 98.6735 30.4118C100.133 29.3494 101.461 28.287 103.053 27.3573C104.513 26.4277 105.973 25.3653 107.433 24.3029C108.893 23.2405 110.22 22.1781 111.415 20.9828C112.609 19.7876 113.406 18.5924 114.069 17.3972C114.6 16.202 114.998 14.7411 114.998 13.0147C114.998 11.6867 114.733 10.4915 114.202 9.42905C113.671 8.36664 113.007 7.43702 112.211 6.77301C111.415 5.9762 110.353 5.44499 109.159 5.04658C107.964 4.64818 106.77 4.51538 105.575 4.51538C103.85 4.51538 102.39 4.78098 101.195 5.44499C100.001 6.109 98.939 6.90581 98.2754 7.96823C97.479 9.03065 96.9481 10.2259 96.6827 11.6867C96.0191 13.2803 95.8864 14.7411 95.8864 16.3348H92.0374C92.0374 14.2099 92.3029 12.2179 92.8338 10.3587C93.3647 8.49944 94.161 6.90581 95.3555 5.57779C96.4173 4.24977 97.8772 3.18735 99.6026 2.52334C101.328 1.72653 103.319 1.32812 105.575 1.32812C107.433 1.32812 109.159 1.59373 110.751 2.12494C112.344 2.65615 113.671 3.32016 114.866 4.38257C116.06 5.31219 116.989 6.64021 117.653 8.10103C118.316 9.56186 118.582 11.2883 118.582 13.2803C118.582 15.0067 118.316 16.6004 117.653 18.0612C117.122 19.522 116.325 20.85 115.264 22.0453C114.335 23.2405 113.14 24.3029 111.946 25.3653C110.618 26.4277 109.291 27.3573 107.964 28.1542C106.902 28.8182 105.84 29.615 104.381 30.4118C103.053 31.2086 101.726 32.1382 100.399 33.2006C99.0717 34.2631 98.0099 35.3255 97.0809 36.5207C96.1518 37.7159 95.4882 39.0439 95.2228 40.372H118.582V43.8248H91.1084Z" fill="white"/>
<path d="M142.604 12.749H146.453V25.8964H164.105V12.749H167.954V43.8247H164.105V29.2165H146.453V43.8247H142.604V12.749Z" fill="white"/>
<path d="M187.995 44.6215C185.606 44.6215 183.483 44.2231 181.757 43.2934C179.899 42.4966 178.439 41.3014 177.112 39.8406C175.917 38.3798 174.988 36.6533 174.325 34.6613C173.661 32.6693 173.396 30.5444 173.396 28.2868C173.396 26.0292 173.661 24.0371 174.325 21.9123C174.988 19.9203 175.917 18.1938 177.112 16.733C178.306 15.2722 179.899 14.077 181.757 13.1474C183.615 12.2177 185.606 11.8193 187.995 11.8193C190.384 11.8193 192.508 12.2177 194.233 13.1474C196.091 14.077 197.551 15.2722 198.878 16.733C200.073 18.1938 201.002 19.9203 201.665 21.9123C202.329 23.9043 202.594 26.0292 202.594 28.2868C202.594 30.5444 202.329 32.6693 201.665 34.6613C201.002 36.6533 200.073 38.3798 198.878 39.8406C197.684 41.3014 196.091 42.4966 194.233 43.2934C192.508 44.2231 190.384 44.6215 187.995 44.6215ZM187.995 41.4342C189.853 41.4342 191.313 41.0358 192.773 40.239C194.1 39.4422 195.295 38.5126 196.224 37.1845C197.153 35.9893 197.817 34.5285 198.215 32.9349C198.613 31.3412 198.878 29.7476 198.878 28.154C198.878 26.5604 198.613 24.9667 198.215 23.3731C197.817 21.7795 197.02 20.4515 196.224 19.1235C195.295 17.9282 194.233 16.8658 192.773 16.069C191.446 15.2722 189.853 14.8738 187.995 14.8738C186.137 14.8738 184.677 15.2722 183.217 16.069C181.89 16.8658 180.695 17.7954 179.766 19.1235C178.837 20.3187 178.174 21.7795 177.776 23.3731C177.377 24.9667 177.112 26.5604 177.112 28.154C177.112 29.7476 177.377 31.3412 177.776 32.9349C178.174 34.5285 178.97 35.8565 179.766 37.1845C180.695 38.3798 181.757 39.4422 183.217 40.239C184.677 41.0358 186.27 41.4342 187.995 41.4342Z" fill="white"/>
<path d="M216.132 31.2085C213.345 30.9429 211.221 30.1461 209.496 28.4197C207.903 26.8261 207.107 24.7012 207.107 21.9124C207.107 20.5843 207.372 19.2563 207.771 18.1939C208.169 16.9987 208.832 16.0691 209.629 15.2723C210.425 14.4755 211.354 13.8114 212.549 13.413C213.743 13.0146 215.07 12.749 216.398 12.749H231.395V43.8247H227.546V31.4741H220.246L209.629 43.8247H204.718L216.132 31.2085ZM227.812 28.2869V15.9363H217.459C215.336 15.9363 213.743 16.4675 212.681 17.6627C211.62 18.8579 210.956 20.3187 210.956 22.0452C210.956 23.9044 211.487 25.3652 212.681 26.4276C213.743 27.6229 215.468 28.1541 217.459 28.1541H227.812V28.2869Z" fill="white"/>
<path d="M252.1 44.6215C249.312 44.6215 246.923 44.0903 245.065 43.0279C243.207 41.9655 241.747 40.6375 240.686 38.911C239.624 37.1846 238.827 35.1926 238.429 32.9349C238.031 30.6773 237.766 28.4197 237.766 26.0292C237.766 24.5684 237.766 22.9748 237.898 21.3811C238.031 19.7875 238.164 18.1939 238.562 16.6003C238.827 15.0066 239.226 13.5458 239.756 12.085C240.287 10.6242 240.818 9.29615 241.615 8.23373C243.075 6.1089 244.667 4.51527 246.658 3.58566C248.649 2.65604 251.038 2.12483 254.09 1.85923L257.01 1.72643C258.603 1.59363 259.665 1.46082 260.196 1.19522C260.727 0.929615 261.125 0.531209 261.39 0H265.637C265.372 1.85923 264.443 3.05445 263.248 3.71846C261.921 4.38247 259.93 4.78088 257.276 4.91368L252.63 5.31209C249.047 5.57769 246.393 6.77291 244.534 9.16335C242.676 11.421 241.482 15.0066 240.686 19.7875H240.818C241.88 17.6627 243.34 16.0691 245.463 14.741C247.454 13.413 249.843 12.8818 252.365 12.8818C254.489 12.8818 256.347 13.2802 258.072 13.9442C259.797 14.6082 261.257 15.6707 262.452 17.1315C263.646 18.4595 264.708 20.1859 265.372 22.178C266.035 24.17 266.434 26.2948 266.434 28.8181C266.434 31.2085 266.035 33.4661 265.372 35.4582C264.708 37.4502 263.779 39.1766 262.452 40.5046C261.125 41.9655 259.665 43.0279 257.939 43.6919C256.214 44.2231 254.223 44.6215 252.1 44.6215ZM252.1 41.4343C253.56 41.4343 255.019 41.1687 256.347 40.5046C257.674 39.8406 258.736 39.0438 259.665 37.8486C260.594 36.6534 261.39 35.3254 261.921 33.7317C262.452 32.1381 262.717 30.4117 262.717 28.5525C262.717 26.6932 262.452 24.9668 261.921 23.3732C261.39 21.7795 260.726 20.4515 259.665 19.3891C258.736 18.3267 257.674 17.3971 256.347 16.8659C255.019 16.2019 253.692 15.9363 252.232 15.9363C250.64 15.9363 249.18 16.2019 247.852 16.8659C246.525 17.5299 245.463 18.3267 244.402 19.3891C243.473 20.4515 242.676 21.7795 242.145 23.3732C241.615 24.9668 241.349 26.6932 241.349 28.5525C241.349 30.4117 241.615 32.2709 242.145 33.7317C242.676 35.3254 243.34 36.6534 244.402 37.8486C245.331 39.0438 246.525 39.8406 247.72 40.5046C249.18 41.1687 250.507 41.4343 252.1 41.4343Z" fill="white"/>
<path d="M272.141 12.749H275.591V18.5922H275.724C276.653 16.4674 277.98 14.741 279.971 13.5458C281.962 12.3505 284.218 11.8193 286.74 11.8193C289.129 11.8193 291.12 12.2177 292.845 13.1474C294.57 14.077 296.03 15.2722 297.225 16.733C298.419 18.1938 299.216 19.9203 299.747 21.9123C300.277 23.9043 300.543 26.0292 300.543 28.154C300.543 30.4116 300.277 32.5365 299.747 34.5285C299.216 36.5205 298.287 38.247 297.225 39.7078C296.03 41.1686 294.57 42.3638 292.845 43.2934C291.12 44.0902 288.996 44.6215 286.74 44.6215C285.545 44.6215 284.484 44.4887 283.289 44.2231C282.227 43.9574 281.166 43.559 280.237 42.895C279.307 42.3638 278.378 41.567 277.715 40.7702C276.919 39.9734 276.388 38.911 275.989 37.8486H275.857V55.1128H272.008V12.749H272.141ZM286.74 41.4342C288.598 41.4342 290.058 41.0358 291.385 40.239C292.712 39.4422 293.774 38.5126 294.57 37.1845C295.367 35.9893 296.03 34.5285 296.429 32.9349C296.827 31.3412 296.959 29.7476 296.959 28.154C296.959 26.5604 296.827 24.9667 296.429 23.3731C296.03 21.7795 295.499 20.3187 294.57 19.1235C293.774 17.9282 292.712 16.8658 291.385 16.069C290.058 15.2722 288.598 14.8738 286.74 14.8738C284.616 14.8738 282.891 15.2722 281.431 15.9362C280.104 16.6002 278.909 17.6626 278.113 18.8578C277.317 20.0531 276.653 21.5139 276.388 23.1075C275.989 24.7011 275.857 26.4276 275.857 28.154C275.857 29.7476 275.989 31.3412 276.388 32.9349C276.786 34.5285 277.449 35.8565 278.246 37.1845C279.042 38.3798 280.237 39.4422 281.564 40.239C283.024 41.0358 284.749 41.4342 286.74 41.4342Z" fill="white"/>
<path d="M314.479 31.2085C311.692 30.9429 309.568 30.1461 307.843 28.4197C306.25 26.8261 305.454 24.7012 305.454 21.9124C305.454 20.5843 305.719 19.2563 306.117 18.1939C306.515 16.9987 307.179 16.0691 307.975 15.2723C308.772 14.4755 309.701 13.8114 310.895 13.413C312.09 13.0146 313.417 12.749 314.744 12.749H329.742V43.8247H325.893V31.4741H318.593L307.975 43.8247H303.065L314.479 31.2085ZM326.025 28.2869V15.9363H315.673C313.55 15.9363 311.957 16.4675 310.895 17.6627C309.833 18.8579 309.17 20.3187 309.17 22.0452C309.17 23.9044 309.701 25.3652 310.895 26.4276C311.957 27.6229 313.682 28.1541 315.673 28.1541H326.025V28.2869Z" fill="white"/>
<path d="M-1 243.426V239.841H12.2721L-1 226.029V221.381L11.2104 234.396L26.3406 220.983V225.631L13.4666 237.318L16.1211 240.106H26.4733V243.692H-1V243.426Z" fill="#FFB32C"/>
<path d="M26.7389 209.96C26.7389 211.554 26.4734 212.882 25.9425 214.077C25.4117 215.272 24.7481 216.202 23.819 217.131C22.89 217.928 21.8282 218.592 20.501 218.991C19.3065 219.389 17.8465 219.655 16.3866 219.655C14.9267 219.655 13.5995 219.389 12.2722 218.991C10.945 218.592 9.88325 217.928 8.9542 217.131C8.02515 216.335 7.22883 215.272 6.69794 214.077C6.16705 212.882 5.90161 211.554 5.90161 209.96C5.90161 208.367 6.16705 207.039 6.69794 205.843C7.22883 204.648 8.02515 203.586 8.9542 202.789C9.88325 201.992 10.945 201.328 12.2722 200.93C13.5995 200.531 14.9267 200.266 16.3866 200.266C17.8465 200.266 19.1738 200.531 20.501 200.93C21.6955 201.328 22.89 201.992 23.819 202.789C24.7481 203.586 25.4117 204.648 25.9425 205.843C26.4734 207.039 26.7389 208.367 26.7389 209.96ZM23.9517 209.96C23.9517 209.163 23.819 208.367 23.4208 207.57C23.1554 206.773 22.6245 206.109 21.9609 205.578C21.2973 205.047 20.501 204.515 19.5719 204.25C18.6429 203.984 17.5811 203.718 16.3866 203.718C15.1921 203.718 14.1303 203.851 13.2013 204.25C12.2722 204.515 11.4759 205.047 10.8123 205.578C10.1487 206.109 9.75053 206.773 9.35237 207.57C9.08693 208.367 8.82148 209.163 8.82148 209.96C8.82148 210.757 8.9542 211.554 9.35237 212.351C9.61781 213.147 10.1487 213.811 10.8123 214.343C11.4759 214.874 12.2722 215.405 13.2013 215.671C14.1303 215.936 15.1921 216.202 16.3866 216.202C17.5811 216.202 18.6429 216.069 19.5719 215.671C20.501 215.405 21.2973 214.874 21.9609 214.343C22.6245 213.811 23.0227 213.147 23.4208 212.351C23.6863 211.554 23.9517 210.757 23.9517 209.96Z" fill="#FFB32C"/>
<path d="M6.56519 196.547V193.36H14.3957V183.267H6.56519V180.08H26.3407V183.267H17.1829V193.36H26.3407V196.547H6.56519Z" fill="#FFB32C"/>
<path d="M24.8807 163.745C25.1461 164.01 25.2788 164.276 25.5443 164.542C25.8097 164.807 25.9424 165.206 26.2079 165.604C26.3406 166.003 26.4733 166.401 26.6061 166.799C26.7388 167.198 26.7388 167.596 26.7388 167.995C26.7388 169.455 26.4733 170.783 25.8097 171.713C25.2788 172.775 24.4825 173.572 23.4207 174.103C22.4917 174.767 21.2972 175.166 19.97 175.431C18.6428 175.697 17.3156 175.83 15.9883 175.83C12.803 175.83 10.414 175.166 8.55594 173.705C6.83056 172.377 5.90151 170.385 5.90151 168.127C5.90151 167.729 5.90151 167.331 6.03423 166.799C6.16696 166.401 6.29968 165.87 6.56512 165.471C6.83056 165.073 6.96328 164.675 7.22873 164.409C7.49417 164.01 7.75961 163.745 8.02506 163.612H-1V160.425H8.15778C7.89233 160.159 7.62689 159.894 7.36145 159.628C7.09601 159.362 6.83056 158.964 6.69784 158.566C6.4324 158.167 6.29968 157.769 6.16696 157.238C6.03423 156.839 6.03423 156.308 6.03423 155.91C6.03423 153.519 6.96328 151.66 8.68866 150.332C10.414 149.004 12.9357 148.207 16.1211 148.207C17.4483 148.207 18.7755 148.34 20.1027 148.605C21.4299 148.871 22.4917 149.402 23.5535 149.933C24.4825 150.597 25.2788 151.394 25.9424 152.324C26.4733 153.386 26.8715 154.582 26.8715 156.042C26.8715 156.839 26.7388 157.503 26.3406 158.433C25.9424 159.23 25.5443 159.894 25.0134 160.292H34.0384V163.479H24.8807V163.745ZM24.0843 167.596C24.0843 166.667 23.8189 165.737 23.288 165.073C22.7571 164.409 22.2262 163.878 21.4299 163.745H11.6085C11.0776 163.878 10.6795 164.143 10.2813 164.409C9.88315 164.675 9.61771 165.073 9.48499 165.471C9.21955 165.87 9.08683 166.268 9.08683 166.667C8.9541 167.065 8.95411 167.463 8.95411 167.862C8.95411 168.659 9.08683 169.455 9.48499 169.987C9.88315 170.651 10.414 171.049 11.0776 171.447C11.7413 171.846 12.5376 172.111 13.4666 172.244C14.3957 172.377 15.3247 172.51 16.3865 172.51C17.3156 172.51 18.2446 172.377 19.1737 172.244C20.1027 172.111 20.899 171.846 21.6954 171.447C22.4917 171.049 23.0226 170.518 23.5535 169.987C23.8189 169.455 24.0843 168.659 24.0843 167.596ZM24.0843 156.706C24.0843 155.777 23.8189 154.847 23.4207 154.316C22.8899 153.652 22.359 153.121 21.5626 152.855C20.7663 152.457 19.97 152.191 19.0409 152.058C18.1119 151.925 17.1828 151.793 16.2538 151.793C15.192 151.793 14.1302 151.925 13.3339 152.058C12.4049 152.191 11.6085 152.59 10.9449 152.855C10.2813 153.254 9.75043 153.785 9.35227 154.316C8.95411 154.98 8.82138 155.644 8.82138 156.441C8.82138 156.839 8.82138 157.238 8.95411 157.636C9.08683 158.034 9.21955 158.433 9.35227 158.831C9.61771 159.23 9.88315 159.495 10.1486 159.894C10.414 160.292 10.9449 160.425 11.4758 160.558H21.4299C22.0935 160.425 22.7571 160.026 23.288 159.23C23.8189 158.566 24.0843 157.769 24.0843 156.706Z" fill="#FFB32C"/>
<path d="M26.7387 135.989C26.7387 137.583 26.4733 138.911 25.9424 140.106C25.4115 141.301 24.7479 142.231 23.8188 143.028C22.8898 143.825 21.828 144.356 20.5008 144.754C19.1736 145.153 17.8464 145.286 16.3864 145.286C14.9265 145.286 13.5993 145.02 12.2721 144.622C10.9449 144.223 9.8831 143.559 8.95405 142.63C8.025 141.833 7.36139 140.77 6.83051 139.708C6.29962 138.513 6.03418 137.317 6.03418 135.989C6.03418 134.263 6.43234 132.802 7.09595 131.607C7.75956 130.412 8.68861 129.482 9.8831 128.818C10.9449 128.154 12.2721 127.623 13.5993 127.357C14.9265 127.092 16.2537 126.959 17.4482 127.092V142.098C18.3773 142.098 19.1736 141.965 19.9699 141.833C20.7663 141.567 21.4299 141.169 22.0935 140.77C22.7571 140.239 23.1552 139.575 23.5534 138.778C23.9516 137.981 24.0843 137.052 24.0843 135.989C24.0843 134.661 23.8188 133.466 23.1552 132.537C22.4916 131.607 21.5626 131.076 20.2354 130.81V127.623C22.4916 128.021 24.217 128.951 25.2788 130.545C26.2078 131.873 26.7387 133.732 26.7387 135.989ZM14.5283 130.677C13.732 130.677 13.0684 130.943 12.4048 131.209C11.7412 131.474 11.0776 131.873 10.6794 132.404C10.1485 132.935 9.75038 133.466 9.48494 134.13C9.21949 134.794 9.08677 135.591 9.08677 136.388C9.08677 137.185 9.21949 137.981 9.48494 138.645C9.75038 139.309 10.1485 139.841 10.6794 140.372C11.2103 140.903 11.7412 141.301 12.4048 141.567C13.0684 141.833 13.8647 141.965 14.5283 142.098V130.677Z" fill="#FFB32C"/>
<path d="M6.56506 123.771V120.584H9.21949V120.451C8.15772 119.92 7.36139 119.123 6.83051 117.928C6.29962 116.733 6.03418 115.538 6.03418 114.077C6.03418 112.483 6.29962 111.155 6.83051 110.093C7.36139 108.898 8.15772 107.968 9.08677 107.304C10.0158 106.507 11.2103 105.976 12.4048 105.578C13.5993 105.179 14.9265 105.046 16.3864 105.046C17.8464 105.046 19.1736 105.179 20.3681 105.578C21.5626 105.976 22.6244 106.507 23.5534 107.304C24.4825 108.101 25.2788 109.03 25.8097 110.093C26.3406 111.288 26.606 112.483 26.606 114.077C26.606 114.608 26.606 115.139 26.4733 115.671C26.3406 116.202 26.2078 116.866 25.9424 117.397C25.6769 117.928 25.4115 118.592 25.0133 119.123C24.6152 119.655 24.0843 120.053 23.5534 120.451V120.584H33.773V123.771H6.56506V123.771ZM23.9516 114.343C23.9516 113.28 23.6861 112.351 23.288 111.554C22.8898 110.757 22.2262 110.226 21.5626 109.694C20.899 109.296 19.9699 108.898 19.1736 108.765C18.2445 108.499 17.3155 108.499 16.3864 108.499C15.4574 108.499 14.5283 108.632 13.732 108.898C12.803 109.163 12.0066 109.562 11.343 109.96C10.6794 110.491 10.1485 111.155 9.75038 111.819C9.35221 112.616 9.08677 113.546 9.08677 114.608C9.08677 115.671 9.35221 116.6 9.75038 117.397C10.1485 118.194 10.8121 118.725 11.4758 119.256C12.1394 119.787 12.9357 120.053 13.8647 120.319C14.7938 120.584 15.7228 120.584 16.5192 120.584C17.4482 120.584 18.3773 120.451 19.3063 120.186C20.2354 119.92 21.0317 119.655 21.6953 119.123C22.3589 118.592 22.8898 117.928 23.4207 117.131C23.6861 116.467 23.9516 115.538 23.9516 114.343Z" fill="#FFB32C"/>
<path d="M26.7387 92.8288C26.7387 94.4224 26.4733 95.7504 25.9424 96.9456C25.4115 98.1408 24.7479 99.0705 23.8188 99.8673C22.8898 100.664 21.828 101.195 20.5008 101.594C19.1736 101.992 17.8464 102.125 16.3864 102.125C14.9265 102.125 13.5993 101.859 12.2721 101.461C10.9449 101.062 9.8831 100.398 8.95405 99.4689C8.025 98.6721 7.36139 97.6096 6.83051 96.5472C6.29962 95.6176 6.03418 94.2896 6.03418 92.9616C6.03418 91.2351 6.43234 89.7743 7.09595 88.5791C7.75956 87.3839 8.68861 86.4543 9.8831 85.7902C10.9449 85.1262 12.2721 84.595 13.5993 84.3294C14.9265 84.0638 16.2537 83.931 17.4482 84.0638V98.9377C18.3773 98.9377 19.1736 98.8049 19.9699 98.6721C20.7663 98.4065 21.4299 98.008 22.0935 97.6096C22.7571 97.0784 23.1552 96.4144 23.5534 95.6176C23.9516 94.8208 24.0843 93.8912 24.0843 92.8288C24.0843 91.5007 23.8188 90.3055 23.1552 89.3759C22.4916 88.4463 21.5626 87.9151 20.2354 87.6495V84.4622C22.4916 84.8606 24.217 85.7903 25.2788 87.3839C26.2078 88.7119 26.7387 90.5711 26.7387 92.8288ZM14.5283 87.3839C13.732 87.3839 13.0684 87.6495 12.4048 87.9151C11.7412 88.1807 11.0776 88.5791 10.6794 89.1103C10.1485 89.6415 9.75038 90.1727 9.48494 90.8367C9.21949 91.5007 9.08677 92.2976 9.08677 93.0944C9.08677 93.8912 9.21949 94.688 9.48494 95.352C9.75038 96.016 10.1485 96.5472 10.6794 97.0784C11.2103 97.6096 11.7412 98.008 12.4048 98.2737C13.0684 98.5393 13.8647 98.6721 14.5283 98.8049V87.3839Z" fill="#FFB32C"/>
<path d="M6.56519 80.611V77.4238H14.3957V67.3308H6.56519V64.1436H26.3407V67.3308H17.1829V77.4238H26.3407V80.611H6.56519Z" fill="#FFB32C"/>
<path d="M26.3407 43.8245V59.2295H6.56519V56.0423H23.4208V46.7461H6.56519V43.5589H23.4208V40.9028H32.3131V43.8245H26.3407Z" fill="#FFB32C"/>
<path d="M6.56519 37.5832V34.3959H22.7572L6.56519 25.0998V20.9829H26.3407V24.1702H10.1487L26.3407 33.4663V37.5832H6.56519V37.5832Z" fill="#FFB32C"/>
<path d="M18.6427 11.8194C18.3772 13.2802 17.8464 14.3427 16.7846 15.2723C15.7228 16.2019 14.3956 16.6003 12.6702 16.6003C10.8121 16.6003 9.35218 16.0691 8.29041 14.8739C7.22864 13.8114 6.69775 12.2178 6.69775 10.3586V0.265625H26.4732V3.45288H18.9081V7.96815L26.4732 14.077V18.4595L18.6427 11.8194ZM15.8555 3.58568H9.35218V9.29617C9.35218 10.6242 9.61762 11.6866 10.2812 12.2178C10.8121 12.8818 11.6084 13.1474 12.6702 13.1474C13.732 13.1474 14.5283 12.8818 15.0592 12.2178C15.5901 11.5538 15.8555 10.6242 15.8555 9.29617V3.58568V3.58568Z" fill="#FFB32C"/>
<path d="M98.8722 285.126C98.8722 287.384 98.0759 288.446 96.3505 288.446C94.6251 288.446 93.8288 287.384 93.8288 285.126V278.884H91.5725V285.392C91.5725 288.712 93.2979 290.571 96.3505 290.571C99.4031 290.571 101.128 288.712 101.128 285.392V278.884H98.8722V285.126V285.126Z" fill="white"/>
<path d="M111.746 284.462C111.746 287.251 110.021 288.446 108.163 288.446C105.906 288.446 104.712 286.454 104.712 284.462C104.712 281.806 106.437 280.478 108.163 280.478C110.286 280.478 111.746 282.204 111.746 284.462ZM108.694 278.486C107.101 278.486 105.774 279.283 104.845 280.611V278.884H102.588V295.352H104.845V288.712C105.774 290.04 107.101 290.704 108.561 290.704C110.154 290.704 111.613 290.04 112.542 288.844C113.472 287.782 114.002 286.188 114.002 284.595C114.002 283.001 113.472 281.54 112.542 280.478C111.613 279.15 110.154 278.486 108.694 278.486Z" fill="white"/>
<path d="M80.0258 279.017C79.3622 278.619 78.8313 278.486 78.1677 278.486C76.8405 278.486 75.646 279.283 75.1151 280.478V278.751H72.8589V290.172H75.1151V284.595C75.1151 282.736 75.3806 280.743 77.6368 280.743C78.035 280.743 78.3005 280.743 78.5659 280.876L80.0258 279.017Z" fill="white"/>
<path d="M69.2755 278.751V280.611C68.3464 279.283 67.0192 278.486 65.4265 278.486C63.8339 278.486 62.5067 279.15 61.5776 280.345C60.6486 281.407 60.1177 282.868 60.1177 284.462C60.1177 286.056 60.6486 287.649 61.5776 288.712C62.5067 289.907 63.9666 290.571 65.5593 290.571C67.0192 290.571 68.3464 289.774 69.2755 288.579V290.305C69.2755 292.297 68.8773 294.289 66.0901 294.289C64.0993 294.289 62.7721 293.094 62.7721 291.235V291.102H60.6486V291.235C60.6486 294.289 62.9048 296.414 66.0901 296.414C71.0008 296.414 71.6644 292.828 71.6644 289.641V278.884H69.2755V278.751ZM65.8247 288.446C63.5684 288.446 62.3739 286.454 62.3739 284.462C62.3739 281.806 64.0993 280.478 65.8247 280.478C67.9482 280.478 69.4082 282.071 69.4082 284.462C69.2755 287.251 67.5501 288.446 65.8247 288.446Z" fill="white"/>
<path d="M134.707 283.4C133.645 283.798 132.583 284.064 131.787 284.064C131.123 284.064 130.725 283.931 130.46 283.533C130.194 283.134 130.194 282.603 130.327 281.806L130.991 278.884C131.256 277.424 131.123 276.361 130.592 275.697C130.062 275.033 129.265 274.768 128.204 274.768C127.009 274.768 125.947 275.166 124.885 276.096C124.487 275.299 123.558 274.768 122.364 274.768C121.302 274.768 120.373 275.166 119.444 275.83C119.046 275.166 117.984 274.635 116.789 274.635C116.259 274.635 115.595 274.768 115.064 274.9H114.931L114.533 277.025L115.064 276.76C115.86 276.494 116.524 276.494 116.789 276.76C117.055 277.025 117.055 277.424 116.922 277.955L115.462 284.197H117.984L119.046 279.814C119.577 277.689 120.506 276.627 121.833 276.627C122.231 276.627 122.496 276.76 122.629 277.025C122.895 277.291 122.895 277.822 122.762 278.619L121.435 284.197H123.956L125.151 279.017C125.416 277.689 126.611 276.627 127.805 276.627C128.204 276.627 128.469 276.76 128.602 277.025C128.867 277.291 128.867 277.822 128.734 278.619L128.071 281.806C127.805 283.134 127.938 284.197 128.602 284.861C129.265 285.657 130.327 286.056 131.654 286.056C132.716 286.056 133.911 285.79 135.105 285.259L135.238 285.126L135.769 282.736L134.707 283.4Z" fill="white"/>
<path d="M90.2455 282.071C89.98 281.275 89.5819 280.743 89.051 280.212C88.5201 279.681 87.9892 279.283 87.1929 279.017C86.5293 278.751 85.6002 278.619 84.6712 278.619C83.7421 278.619 82.9458 278.751 82.1495 279.017C81.4859 279.283 80.8223 279.681 80.2914 280.212C79.7605 280.743 79.3623 281.407 79.0969 282.071C78.8315 282.868 78.6987 283.665 78.6987 284.462C78.6987 285.392 78.8315 286.188 79.0969 286.985C79.3623 287.782 79.7605 288.313 80.2914 288.844C80.8223 289.376 81.3532 289.774 82.1495 290.04C82.8131 290.305 83.7421 290.438 84.6712 290.438C85.6002 290.438 86.3966 290.305 87.1929 290.04C87.8565 289.774 88.5201 289.376 89.051 288.844C89.5819 288.313 89.98 287.649 90.2455 286.985C90.5109 286.188 90.6436 285.392 90.6436 284.462C90.6436 283.665 90.5109 282.736 90.2455 282.071ZM86.3966 288.313C85.9984 288.579 85.4675 288.712 84.8039 288.712C84.273 288.712 83.7421 288.579 83.2113 288.313C82.8131 288.048 82.4149 287.782 82.1495 287.384C81.884 286.985 81.6186 286.587 81.4859 286.056C81.3532 285.524 81.3532 284.993 81.3532 284.462C81.3532 283.931 81.3532 283.4 81.4859 283.001C81.6186 282.47 81.884 282.072 82.1495 281.673C82.4149 281.275 82.8131 281.009 83.2113 280.743C83.6094 280.478 84.1403 280.345 84.8039 280.345C85.3348 280.345 85.8657 280.478 86.3966 280.743C86.7947 281.009 87.1929 281.275 87.4583 281.673C87.7238 282.072 87.9892 282.47 88.1219 283.001C88.2547 283.532 88.2547 284.064 88.2547 284.462C88.2547 284.993 88.2547 285.524 88.1219 286.056C87.9892 286.587 87.7238 286.985 87.4583 287.384C87.1929 287.782 86.7947 288.18 86.3966 288.313Z" fill="white"/>
<path d="M444.346 297.211C444.213 297.211 443.948 297.078 443.682 296.68L443.019 294.821H438.904L438.241 296.68C438.108 297.078 437.843 297.211 437.577 297.211C437.312 297.211 436.914 296.946 436.914 296.547C436.914 296.414 436.914 296.282 437.046 296.149L440.232 288.181C440.497 287.517 440.762 287.517 441.028 287.517C441.293 287.517 441.559 287.649 441.824 288.181L445.01 296.149C445.142 296.282 445.142 296.414 445.142 296.547C445.01 296.946 444.611 297.211 444.346 297.211ZM442.488 293.493L440.895 289.243L439.303 293.493H442.488ZM452.044 288.579C452.177 288.446 452.177 288.181 452.177 288.181C452.177 287.782 451.911 287.517 451.513 287.517C451.247 287.517 450.982 287.649 450.849 288.048L448.062 295.352L445.275 288.048C445.142 287.649 444.877 287.517 444.611 287.517C444.213 287.517 443.948 287.782 443.948 288.181C443.948 288.313 443.948 288.446 444.081 288.579L447.133 296.414C447.399 297.078 447.797 297.211 448.062 297.211C448.328 297.211 448.726 297.078 448.991 296.414L452.044 288.579ZM458.547 292.696C459.078 292.696 459.211 292.297 459.211 292.165C459.211 292.032 459.078 291.633 458.547 291.633H454.566V288.845H458.813C459.343 288.845 459.476 288.446 459.476 288.313C459.476 288.181 459.343 287.782 458.813 287.782H454.035C453.504 287.782 453.238 288.048 453.238 288.579V296.547C453.238 297.078 453.504 297.344 454.035 297.344H458.945C459.476 297.344 459.609 296.946 459.609 296.813C459.609 296.68 459.476 296.282 458.945 296.282H454.566V293.094H458.547V292.696ZM479.65 297.211C479.517 297.211 479.252 297.078 478.986 296.68L478.323 294.821H474.208L473.545 296.68C473.412 297.078 473.147 297.211 472.881 297.211C472.616 297.211 472.217 296.946 472.217 296.547C472.217 296.414 472.217 296.282 472.35 296.149L475.536 288.181C475.801 287.517 476.066 287.517 476.332 287.517C476.597 287.517 476.863 287.649 477.128 288.181L480.313 296.149C480.446 296.282 480.446 296.414 480.446 296.547C480.314 296.946 480.048 297.211 479.65 297.211ZM477.924 293.493L476.332 289.243L474.739 293.493H477.924ZM470.492 297.211C470.758 297.211 471.156 297.078 471.156 296.414V288.313C471.156 287.517 470.625 287.384 470.359 287.384C470.094 287.384 469.696 287.517 469.43 288.181L466.245 295.352L463.06 288.181C462.794 287.517 462.396 287.384 462.131 287.384C461.865 287.384 461.334 287.517 461.334 288.313V296.414C461.334 297.078 461.732 297.078 461.998 297.078C462.263 297.078 462.662 296.946 462.662 296.414V290.305L465.449 296.547C465.714 297.078 465.98 297.211 466.245 297.211C466.51 297.211 466.776 297.078 467.041 296.547L469.829 290.173V296.414C469.829 297.078 470.227 297.211 470.492 297.211ZM488.675 296.547C488.675 296.414 488.675 296.149 488.41 296.016L484.295 292.032L488.144 288.712C488.409 288.446 488.41 288.313 488.41 288.181C488.41 287.782 488.144 287.649 487.746 287.649C487.613 287.649 487.348 287.782 487.215 287.915L482.835 291.899V288.181C482.835 287.517 482.437 287.384 482.172 287.384C481.906 287.384 481.508 287.517 481.508 288.181V296.414C481.508 297.078 481.906 297.211 482.172 297.211C482.437 297.211 482.835 297.078 482.835 296.414V292.165L487.48 296.946C487.613 297.211 487.879 297.211 488.011 297.211C488.409 297.211 488.675 296.813 488.675 296.547ZM495.311 292.696C495.842 292.696 495.975 292.297 495.975 292.165C495.975 292.032 495.842 291.633 495.311 291.633H491.329V288.845H495.576C496.107 288.845 496.24 288.446 496.24 288.313C496.24 288.181 496.107 287.782 495.576 287.782H490.798C490.268 287.782 490.002 288.048 490.002 288.579V296.547C490.002 297.078 490.268 297.344 490.798 297.344H495.709C496.24 297.344 496.373 296.946 496.373 296.813C496.373 296.68 496.24 296.282 495.709 296.282H491.329V293.094H495.311V292.696ZM500.62 292.829H499.16V296.414C499.16 297.078 498.762 297.211 498.496 297.211C498.231 297.211 497.833 297.078 497.833 296.414V288.313C497.833 287.782 498.098 287.517 498.629 287.517H500.885C502.743 287.517 504.203 288.181 504.203 290.173C504.203 291.501 503.274 292.43 501.947 292.696L504.203 296.016C504.336 296.149 504.336 296.414 504.336 296.414C504.336 296.813 504.071 297.078 503.672 297.078C503.54 297.078 503.274 296.946 503.142 296.68L500.62 292.829ZM499.16 291.633H500.753C501.947 291.633 503.009 291.235 503.009 290.04C503.009 288.845 502.08 288.579 500.885 288.579H499.293V291.633H499.16ZM437.444 287.517C437.046 287.384 436.648 287.517 436.515 287.915L433.861 295.086L432.003 287.915C431.87 287.649 431.605 287.384 431.339 287.384C431.074 287.384 430.808 287.517 430.676 287.915L428.818 295.086L426.163 287.915C426.03 287.517 425.632 287.384 425.234 287.517C424.836 287.649 424.703 288.048 424.836 288.446L427.889 296.547C428.021 296.813 428.154 296.946 428.419 297.078C428.95 297.211 429.481 297.078 429.614 296.547V296.414L431.207 290.173L432.799 296.414V296.547C432.932 297.078 433.596 297.344 433.994 297.078C434.259 296.946 434.392 296.813 434.525 296.547L437.577 288.446C437.975 288.048 437.843 287.649 437.444 287.517Z" fill="white"/>
<path d="M477.792 282.604C477.659 282.604 477.526 282.604 477.394 282.604C476.863 282.604 476.332 282.205 476.199 281.674L474.341 275.831L472.483 281.674C472.35 282.205 471.819 281.674 471.288 281.674C470.758 281.674 470.227 282.205 470.094 281.674L468.236 275.831L466.378 281.674C466.245 282.205 465.714 282.604 465.183 282.604C465.051 282.604 464.918 282.604 464.785 282.604C464.121 282.338 463.723 281.674 463.989 281.01L467.041 271.581C467.174 271.05 467.705 271.581 468.236 271.581C468.767 271.581 469.298 271.05 469.43 271.581L471.288 277.424L473.147 271.581C473.279 271.05 473.81 271.581 474.341 271.581C474.872 271.581 475.403 271.05 475.536 271.581L478.588 281.01C478.854 281.674 478.455 282.338 477.792 282.604ZM464.387 270.784C464.254 270.784 464.121 270.784 463.989 270.784C463.458 270.784 462.927 271.183 462.794 271.714L460.936 277.557L459.078 271.714C458.945 271.183 458.414 271.714 457.884 271.714C457.353 271.714 456.822 271.183 456.689 271.714L454.831 277.557L452.973 271.714C452.84 271.183 452.309 270.784 451.778 270.784C451.646 270.784 451.513 270.784 451.38 270.784C450.717 271.05 450.318 271.714 450.584 272.378L453.636 281.807C453.769 282.338 454.3 281.807 454.831 281.807C455.362 281.807 455.893 282.338 456.025 281.807L457.884 275.963L459.742 281.807C459.874 282.338 460.405 281.807 460.936 281.807C461.467 281.807 461.998 282.338 462.131 281.807L465.183 272.378C465.449 271.714 465.051 270.917 464.387 270.784Z" fill="white"/>
<path d="M474.341 270.651C474.872 270.651 475.403 271.049 475.536 271.58C475.668 271.846 475.668 272.112 475.536 272.377L474.341 275.963L473.147 272.377C473.014 272.112 473.014 271.846 473.147 271.58C473.279 271.049 473.81 270.651 474.341 270.651ZM466.909 271.58C466.776 271.846 466.776 272.112 466.909 272.377L468.103 275.963L469.298 272.377C469.43 272.112 469.43 271.846 469.298 271.58C469.165 271.049 468.634 270.651 468.103 270.651C467.572 270.651 467.041 271.049 466.909 271.58ZM460.936 282.603C461.467 282.603 461.998 282.205 462.131 281.673C462.263 281.408 462.263 281.142 462.131 280.877L460.936 277.291L459.742 280.877C459.609 281.142 459.609 281.408 459.742 281.673C459.874 282.205 460.405 282.603 460.936 282.603ZM454.698 282.603C455.229 282.603 455.76 282.205 455.893 281.673C456.026 281.408 456.026 281.142 455.893 280.877L454.698 277.291L453.504 280.877C453.371 281.142 453.371 281.408 453.504 281.673C453.769 282.205 454.167 282.603 454.698 282.603Z" fill="white"/>
<path d="M457.884 270.651C458.415 270.651 458.945 271.049 459.078 271.58C459.211 271.846 459.211 272.112 459.078 272.377L457.884 275.963L456.689 272.377C456.556 272.112 456.556 271.846 456.689 271.58C456.822 271.049 457.353 270.651 457.884 270.651ZM471.288 282.603C471.819 282.603 472.35 282.205 472.483 281.673C472.616 281.408 472.616 281.142 472.483 280.877L471.288 277.291L470.094 280.877C469.961 281.142 469.961 281.408 470.094 281.673C470.227 282.205 470.625 282.603 471.288 282.603Z" fill="white"/>
<path d="M319.322 290.969H316.004V282.868L313.881 291.102H311.625L309.501 282.868V291.102H306.847V279.681H311.492L313.085 285.79L314.677 279.681H319.322V290.969Z" fill="white"/>
<path d="M328.878 290.969H320.251V279.548H328.878V282.204H323.702V283.931H327.817V286.454H323.702V288.313H328.878V290.969Z" fill="white"/>
<path d="M329.675 279.548H333.922C335.515 279.548 336.842 279.814 338.169 281.009C339.363 282.204 339.894 283.665 339.894 285.392C339.894 286.852 339.363 288.446 338.302 289.508C337.107 290.704 335.78 291.102 334.187 291.102H329.675V279.548ZM333.656 288.446C334.187 288.446 334.453 288.446 334.851 288.18C335.116 288.048 335.382 287.782 335.647 287.384C336.045 286.72 336.178 285.923 336.178 285.126C336.178 284.329 335.913 283.4 335.515 282.736C334.984 282.072 334.453 282.072 333.656 282.072H333.258V288.313H333.656V288.446Z" fill="white"/>
<path d="M344.009 290.969H340.425V279.548H344.009V290.969Z" fill="white"/>
<path d="M351.176 288.712H348.123L347.459 290.969H344.54L348.123 279.548H351.839L355.423 290.969H351.839L351.176 288.712ZM350.645 286.321L349.716 283.001L348.787 286.321H350.645Z" fill="white"/>
<path d="M364.713 286.852C364.448 289.508 362.59 291.235 359.935 291.235C356.485 291.235 354.626 288.712 354.626 285.524C354.626 282.204 356.219 279.416 359.803 279.416C362.722 279.416 364.448 281.142 364.581 284.064L361.263 284.196C361.263 283.267 360.864 282.072 359.803 282.072C358.21 282.072 358.21 284.462 358.21 285.524C358.21 286.72 358.343 288.579 359.803 288.579C360.864 288.579 361.263 287.649 361.395 286.72L364.713 286.852Z" fill="white"/>
<path d="M376.127 285.392C376.127 288.712 374.137 291.235 370.686 291.235C367.235 291.235 365.244 288.579 365.244 285.392C365.244 281.939 367.235 279.416 370.686 279.416C374.137 279.416 376.127 281.939 376.127 285.392ZM368.96 285.392C368.96 286.454 369.093 288.579 370.686 288.579C372.278 288.579 372.411 286.454 372.411 285.392C372.411 284.329 372.278 282.072 370.686 282.072C369.093 281.939 368.96 284.196 368.96 285.392Z" fill="white"/>
<path d="M389.134 290.969H385.816V282.868L383.692 291.102H381.436L379.313 282.868V291.102H376.658V279.681H381.303L382.896 285.79L384.489 279.681H389.134V290.969Z" fill="white"/>
<g opacity="0.5">
<path opacity="0.5" d="M252.696 299.469L249.644 287.782L255.616 298.274L255.484 298.406C254.687 298.938 253.758 299.203 252.829 299.469H252.696ZM250.573 290.04L252.962 299.07C253.758 298.805 254.555 298.539 255.218 298.141L250.573 290.04Z" fill="white"/>
<path opacity="0.5" d="M247.387 299.469H247.255C246.326 299.203 245.529 298.805 244.6 298.406L244.468 298.274L249.909 288.845H250.175V289.11L247.387 299.469ZM244.998 298.141C245.662 298.539 246.458 298.805 247.255 299.07L249.644 290.04L244.998 298.141Z" fill="white"/>
<path opacity="0.5" d="M250.042 299.734H249.909V287.649L252.962 299.336H252.829C251.9 299.734 250.971 299.734 250.042 299.734ZM250.175 290.173V299.469C250.971 299.469 251.767 299.336 252.564 299.203L250.175 290.173Z" fill="white"/>
<path opacity="0.5" d="M250.042 299.734C249.113 299.734 248.184 299.602 247.255 299.336H247.122L250.175 287.649V299.734H250.042ZM247.52 299.203C248.317 299.336 249.113 299.469 249.909 299.469V290.173L247.52 299.203Z" fill="white"/>
<path opacity="0.5" d="M255.351 298.407L249.909 288.978L250.042 288.712L257.872 296.547L257.74 296.68C257.076 297.344 256.28 297.875 255.483 298.407H255.351ZM250.838 289.907L255.483 298.008C256.147 297.61 256.811 297.079 257.342 296.547L250.838 289.907Z" fill="white"/>
<path opacity="0.5" d="M242.477 296.68C241.68 295.883 241.149 295.086 240.619 294.29L240.486 294.157L249.776 288.712L249.909 288.579L250.042 288.978H249.909L242.477 296.68ZM241.017 294.29C241.415 294.954 241.946 295.618 242.477 296.282L248.98 289.774L241.017 294.29Z" fill="white"/>
<path opacity="0.5" d="M250.042 289.11L240.486 283.665L240.619 283.533C241.149 282.736 241.68 281.939 242.344 281.275L242.477 281.142L250.174 288.845L250.042 289.11ZM241.017 283.533L249.113 288.181L242.477 281.673C241.946 282.205 241.415 282.869 241.017 283.533Z" fill="white"/>
<path opacity="0.5" d="M250.838 289.907L250.042 289.111L250.175 288.978L250.042 289.111L242.344 281.408L242.477 281.275C243.14 280.611 243.937 280.08 244.733 279.549L244.866 279.416L250.838 289.907ZM242.742 281.408L249.246 287.915L244.6 279.814C243.937 280.346 243.273 280.877 242.742 281.408Z" fill="white"/>
<path opacity="0.5" d="M250.573 290.04L244.6 279.549L244.733 279.416C245.529 278.885 246.458 278.619 247.388 278.354H247.52L250.573 290.04ZM244.999 279.814L249.644 287.915L247.255 278.885C246.458 279.018 245.662 279.416 244.999 279.814Z" fill="white"/>
<path opacity="0.5" d="M250.706 289.11H250.042L239.557 286.322V286.189C239.822 285.259 240.22 284.462 240.619 283.533L240.751 283.4L250.706 289.11ZM239.955 286.056L248.98 288.446L240.884 283.798C240.486 284.595 240.22 285.259 239.955 286.056Z" fill="white"/>
<path opacity="0.5" d="M250.042 289.111H239.159V288.978C239.159 288.048 239.291 287.119 239.557 286.189V286.056L250.307 288.978L250.042 289.111ZM239.557 288.845H248.847L239.822 286.455C239.69 287.119 239.557 288.048 239.557 288.845Z" fill="white"/>
<path opacity="0.5" d="M244.733 298.407L244.6 298.274C243.804 297.743 243.008 297.211 242.344 296.547L242.211 296.414L249.909 288.712H250.44L250.175 288.978L244.733 298.407ZM242.742 296.547C243.273 297.079 243.937 297.61 244.6 298.008L249.246 289.907L242.742 296.547Z" fill="white"/>
<path opacity="0.5" d="M240.751 294.555L240.619 294.422C240.088 293.626 239.822 292.696 239.557 291.766V291.634L250.042 288.845H250.706L250.175 289.11L240.751 294.555ZM239.955 291.899C240.22 292.696 240.486 293.493 240.884 294.157L248.98 289.509L239.955 291.899Z" fill="white"/>
<path opacity="0.5" d="M239.69 291.899V291.766C239.424 290.837 239.292 289.907 239.292 288.978V288.845H251.369L239.69 291.899ZM239.557 289.11C239.557 289.907 239.69 290.704 239.822 291.501L248.847 289.11H239.557Z" fill="white"/>
<path opacity="0.5" d="M249.644 290.04L252.696 278.354H252.829C253.758 278.619 254.555 279.018 255.484 279.416L255.616 279.549L249.644 290.04ZM252.962 278.885L250.573 287.915L255.218 279.814C254.422 279.416 253.758 279.018 252.962 278.885Z" fill="white"/>
<path opacity="0.5" d="M249.246 289.907L255.218 279.416L255.351 279.549C256.147 280.08 256.943 280.611 257.607 281.275L257.74 281.408L249.246 289.907ZM255.484 279.947L250.838 288.048L257.342 281.541C256.811 280.877 256.147 280.346 255.484 279.947Z" fill="white"/>
<path opacity="0.5" d="M257.607 296.68L250.042 289.11L250.307 288.845C250.971 289.509 251.635 290.04 252.431 290.438C253.227 290.837 254.024 291.235 254.953 291.501L259.598 294.157L259.465 294.29C258.934 295.219 258.403 296.016 257.607 296.68ZM252.033 290.704L257.607 296.282C258.138 295.75 258.669 295.086 259.067 294.422L254.82 291.899C253.891 291.634 253.095 291.235 252.166 290.837C252.166 290.704 252.033 290.704 252.033 290.704Z" fill="white"/>
<path opacity="0.5" d="M259.333 294.555L253.625 291.235L254.82 291.501C255.749 291.767 256.545 291.899 257.474 291.899C258.403 291.899 259.332 291.767 260.129 291.501L260.394 291.368L260.262 291.634C259.996 292.563 259.598 293.36 259.2 294.29L259.333 294.555ZM255.749 292.032L259.2 294.024C259.598 293.36 259.863 292.696 260.129 291.899C259.332 292.032 258.403 292.165 257.607 292.165C256.944 292.298 256.413 292.165 255.749 292.032Z" fill="white"/>
<path opacity="0.5" d="M249.909 290.173V278.088H250.042C250.971 278.088 251.9 278.221 252.829 278.486H252.962L249.909 290.173ZM250.175 278.486V287.782L252.564 278.752C251.767 278.619 250.971 278.486 250.175 278.486Z" fill="white"/>
<path opacity="0.5" d="M250.175 290.173L247.122 278.486H247.255C248.184 278.221 249.113 278.088 250.042 278.088H250.175V290.173ZM247.52 278.752L249.909 287.782V278.486C249.113 278.486 248.317 278.619 247.52 278.752Z" fill="white"/>
<path opacity="0.5" d="M257.607 292.297H257.474V280.212L260.527 291.899H260.394C259.465 292.165 258.536 292.297 257.607 292.297ZM257.74 282.603V291.899C258.536 291.899 259.332 291.766 260.129 291.633L257.74 282.603Z" fill="white"/>
<path opacity="0.5" d="M260.261 291.899L257.209 280.212L263.181 290.704L263.048 290.837C262.252 291.368 261.323 291.633 260.394 291.899H260.261ZM258.005 282.603L260.394 291.633C261.19 291.368 261.987 291.102 262.65 290.704L258.005 282.603Z" fill="white"/>
<path opacity="0.5" d="M257.74 292.297H257.607C256.678 292.297 255.749 292.165 254.82 291.899H254.687L257.607 281.142L257.873 281.408V281.54V292.297H257.74ZM255.085 291.633C255.882 291.766 256.678 291.899 257.474 291.899V282.603L255.085 291.633Z" fill="white"/>
<path opacity="0.5" d="M254.953 291.899H254.82C253.891 291.633 253.094 291.235 252.165 290.837L252.033 290.704L258.005 280.212L254.953 291.899ZM252.431 290.571C253.094 290.969 253.891 291.235 254.687 291.501L257.076 282.47L252.431 290.571Z" fill="white"/>
<path opacity="0.5" d="M252.298 290.837L252.165 290.704C251.369 290.173 250.573 289.641 249.909 288.977L249.776 288.845L258.271 280.345L252.298 290.837ZM250.307 288.977C250.838 289.509 251.502 290.04 252.298 290.438L256.943 282.337L250.307 288.977Z" fill="white"/>
<path opacity="0.5" d="M267.959 284.329L257.474 281.54H257.342V281.142H257.474H268.225V281.275C268.225 282.205 268.092 283.134 267.827 284.064L267.959 284.329ZM258.801 281.54L267.827 283.931C267.959 283.134 268.092 282.337 268.092 281.54H258.801Z" fill="white"/>
<path opacity="0.5" d="M257.607 281.673L257.342 281.541L260.129 270.917H260.261C261.19 271.182 261.987 271.581 262.916 271.979L263.049 272.112L257.607 281.673ZM260.527 271.315L258.138 280.345L262.783 272.245C261.987 271.846 261.19 271.581 260.527 271.315Z" fill="white"/>
<path opacity="0.5" d="M257.474 281.939V270.518H257.607C258.536 270.518 259.465 270.651 260.394 270.916H260.527L257.74 281.408L257.474 281.939ZM257.74 270.916V280.213L260.129 271.182C259.332 271.049 258.536 270.916 257.74 270.916Z" fill="white"/>
<path opacity="0.5" d="M257.74 282.603L254.687 270.916H254.82C255.749 270.651 256.678 270.518 257.607 270.518H257.74V282.603ZM255.085 271.182L257.474 280.213V270.916C256.678 270.916 255.749 271.049 255.085 271.182Z" fill="white"/>
<path opacity="0.5" d="M257.076 282.072L262.916 271.979L263.049 272.112C263.845 272.643 264.641 273.174 265.305 273.838L265.438 273.971L257.74 281.674L257.076 282.072ZM263.049 272.377L258.403 280.478L264.907 273.971C264.376 273.307 263.712 272.776 263.049 272.377Z" fill="white"/>
<path opacity="0.5" d="M257.607 281.54H257.209L265.172 273.572L265.305 273.705C265.968 274.369 266.499 275.166 267.03 275.963L267.163 276.096L257.607 281.54ZM265.172 274.103L258.536 280.744L266.632 276.096C266.234 275.299 265.703 274.635 265.172 274.103Z" fill="white"/>
<path opacity="0.5" d="M266.897 286.985L257.474 281.54H257.342V281.142L257.607 281.275L268.092 284.064V284.197C267.827 285.126 267.428 285.923 267.03 286.853L266.897 286.985ZM258.669 281.939L266.765 286.587C267.163 285.923 267.428 285.126 267.694 284.329L258.669 281.939Z" fill="white"/>
<path opacity="0.5" d="M257.076 281.541L257.474 281.275L267.959 278.486V278.619C268.225 279.549 268.357 280.478 268.357 281.408V281.541H257.076ZM267.827 278.885L258.802 281.275H268.092C268.092 280.478 267.959 279.682 267.827 278.885Z" fill="white"/>
<path opacity="0.5" d="M256.413 281.939L266.898 275.963L267.03 276.096C267.561 276.892 267.827 277.822 268.092 278.752V278.885L256.413 281.939ZM266.765 276.228L258.669 280.877L267.694 278.486C267.428 277.689 267.163 277.025 266.765 276.228Z" fill="white"/>
<path opacity="0.5" d="M258.403 282.338L249.909 273.838L250.042 273.705C250.706 273.041 251.502 272.51 252.298 271.979L252.431 271.846L258.403 282.338ZM250.307 273.838L256.811 280.346L252.165 272.245C251.502 272.776 250.838 273.307 250.307 273.838Z" fill="white"/>
<path opacity="0.5" d="M258.005 282.603L252.033 272.112L252.165 271.979C252.962 271.448 253.891 271.182 254.82 270.917H254.953V271.049L258.005 282.603ZM252.431 272.245L257.076 280.345L254.687 271.315C253.891 271.581 253.227 271.846 252.431 272.245Z" fill="white"/>
<path opacity="0.5" d="M257.474 281.54C256.811 280.876 256.147 280.345 255.351 279.947C254.554 279.548 253.758 279.15 252.829 278.884L248.184 276.228L248.317 276.096C248.847 275.299 249.378 274.502 250.042 273.838L250.175 273.705L257.873 281.408L257.474 281.54ZM252.829 278.486C253.758 278.752 254.554 279.15 255.484 279.548C255.484 279.548 255.616 279.548 255.616 279.681L250.042 274.103C249.511 274.635 248.98 275.299 248.582 275.963L252.829 278.486Z" fill="white"/>
<path opacity="0.5" d="M253.891 279.15L252.696 278.885C251.767 278.619 250.838 278.486 250.042 278.486C249.113 278.486 248.184 278.619 247.388 278.885L247.122 279.017L247.255 278.752C247.52 277.822 247.918 277.025 248.317 276.096L248.449 275.963L253.891 279.15ZM248.449 276.228C248.051 276.893 247.786 277.557 247.52 278.353C248.317 278.221 249.246 278.088 250.042 278.088C250.706 278.088 251.236 278.088 251.767 278.221L248.449 276.228Z" fill="white"/>
<path opacity="0.5" d="M265.172 289.243L257.474 281.541L257.607 281.275L267.163 286.72L267.03 286.853C266.499 287.649 265.969 288.446 265.172 289.243ZM258.536 282.205L265.172 288.845C265.703 288.313 266.234 287.649 266.632 286.853L258.536 282.205Z" fill="white"/>
<path opacity="0.5" d="M262.916 290.837L256.943 280.345L265.438 288.845L265.305 288.977C264.641 289.641 263.845 290.173 263.049 290.704L262.916 290.837ZM258.403 282.337L263.049 290.438C263.712 290.04 264.376 289.509 264.907 288.977L258.403 282.337Z" fill="white"/>
</g>
<path d="M176.116 288.978H174.656V284.064L172.002 287.252C171.869 287.384 171.736 287.384 171.604 287.252L168.949 284.064V288.978H167.489V282.205C167.489 281.807 167.887 281.408 168.286 281.408C168.551 281.408 168.816 281.541 168.949 281.807L171.736 285.259L174.656 281.674C174.789 281.541 175.054 281.408 175.187 281.408C175.585 281.408 175.983 281.807 175.983 282.205V288.978H176.116Z" fill="white"/>
<path d="M213.942 288.977H215.667L216.596 286.985H219.914L220.976 288.977H222.701L218.985 281.806C218.852 281.541 218.587 281.408 218.321 281.408C218.056 281.408 217.791 281.541 217.658 281.806L213.942 288.977ZM218.189 283.533L219.251 285.657H217.127L218.189 283.533Z" fill="white"/>
<path d="M188.194 288.977H187.132L182.089 283.931V288.977H180.629V282.205C180.629 281.806 181.027 281.408 181.425 281.408C181.69 281.408 181.823 281.541 182.089 281.673L186.734 286.321V281.806C186.734 281.54 186.999 281.275 187.265 281.275H187.796C188.061 281.275 188.326 281.54 188.326 281.806V288.977H188.194Z" fill="white"/>
<path d="M194.432 281.541C193.901 281.408 193.37 281.408 192.574 281.408H190.45C190.052 281.408 189.654 281.806 189.654 282.205V288.977H192.176C192.972 288.977 193.635 288.845 194.299 288.712C196.29 288.181 197.352 286.853 197.352 285.126C197.352 283.267 196.29 282.072 194.432 281.541ZM194.034 287.384C193.503 287.517 192.972 287.517 192.308 287.517H191.379V282.869H192.574C193.237 282.869 193.768 282.869 194.166 283.001C195.361 283.267 195.892 283.931 195.892 285.126C195.759 286.189 195.228 286.985 194.034 287.384Z" fill="white"/>
<path d="M228.01 285.923C229.205 285.525 229.736 284.861 229.736 283.665C229.736 282.205 228.541 281.275 226.683 281.275H224.161C223.763 281.275 223.365 281.673 223.365 282.072V288.845H224.825V286.056H226.152L228.01 288.845H229.868L228.01 285.923ZM224.958 284.728V282.869H226.816C227.347 282.869 228.143 283.001 228.143 283.798C228.143 284.197 228.01 284.728 226.55 284.728H224.958V284.728Z" fill="white"/>
<path d="M177.576 288.977H179.036V281.939C179.036 281.673 178.771 281.408 178.505 281.408H177.974C177.709 281.408 177.443 281.673 177.443 281.939V288.977H177.576Z" fill="white"/>
<path d="M213.013 288.977H211.42V285.79H207.438V288.977H205.979V281.939C205.979 281.673 206.244 281.408 206.509 281.408H207.04C207.306 281.408 207.571 281.673 207.571 281.939V284.462H211.553V281.939C211.553 281.673 211.818 281.408 212.084 281.408H212.615C212.88 281.408 213.145 281.673 213.145 281.939V288.977H213.013Z" fill="white"/>
<path d="M201.731 284.462C200.67 284.329 200.006 284.197 200.006 283.533C200.006 283.001 200.537 282.736 201.466 282.736C202.528 282.736 203.324 283.134 203.722 283.267C203.855 283.267 203.855 283.267 203.855 283.134L204.253 282.205C204.253 282.205 204.253 282.204 204.253 282.072C204.253 281.939 204.253 281.939 204.12 281.939C203.324 281.541 202.262 281.275 201.333 281.275C199.475 281.275 198.413 282.072 198.413 283.533C198.413 284.197 198.679 284.728 199.077 285.126C199.608 285.525 200.537 285.657 201.333 285.79C202.395 285.923 203.059 286.056 203.059 286.587C203.059 287.517 201.864 287.517 201.333 287.517C200.537 287.517 199.741 287.251 199.077 286.853L198.944 286.72L198.812 286.853L198.281 287.782L198.148 288.181L198.281 288.313C198.812 288.712 199.741 289.11 201.201 289.11C203.191 289.11 204.519 288.181 204.519 286.72C204.651 284.861 203.059 284.595 201.731 284.462Z" fill="white"/>
<path d="M236.239 285.525C236.239 285.657 236.106 285.79 235.973 285.79H232.655V287.517H236.637V288.977H231.063V282.205C231.063 281.806 231.461 281.408 231.859 281.408H236.239C236.372 281.408 236.504 281.541 236.504 281.673V282.47C236.504 282.603 236.372 282.736 236.239 282.736H232.655V284.329H235.973C236.106 284.329 236.239 284.462 236.239 284.595V285.525Z" fill="white"/>
<path d="M250.042 300C243.937 300 238.893 295.087 238.893 288.845C238.893 282.736 243.804 277.689 250.042 277.689C252.962 277.689 255.749 278.885 257.872 280.877L257.209 281.541C255.351 279.681 252.696 278.619 250.042 278.619C244.468 278.619 239.955 283.134 239.955 288.712C239.955 294.29 244.468 298.805 250.042 298.805C254.687 298.805 258.802 295.618 259.863 291.102L260.792 291.368C259.598 296.547 255.218 300 250.042 300Z" fill="white"/>
<path d="M250.042 289.907C249.511 289.907 249.113 289.509 249.113 288.977C249.113 288.446 249.511 288.048 250.042 288.048C250.573 288.048 250.971 288.446 250.971 288.977C250.971 289.509 250.573 289.907 250.042 289.907ZM250.042 288.845C250.042 288.845 250.042 288.977 250.042 288.845C250.042 288.977 250.042 288.977 250.042 288.845C250.042 288.977 250.042 288.977 250.042 288.845C250.042 288.845 250.042 288.977 250.042 288.845Z" fill="white"/>
<path d="M257.607 292.43C254.687 292.43 251.9 291.368 249.909 289.243L250.573 288.579C252.431 290.438 254.953 291.501 257.607 291.501C258.536 291.501 259.465 291.368 260.262 291.102C264.641 289.907 267.694 285.923 267.694 281.275C267.694 275.697 263.181 271.182 257.607 271.182C252.962 271.182 248.848 274.369 247.786 278.885L246.857 278.619C248.051 273.572 252.564 270.12 257.607 270.12C263.712 270.12 268.756 275.033 268.756 281.275C268.756 286.321 265.438 290.704 260.527 292.032C259.598 292.298 258.536 292.43 257.607 292.43Z" fill="white"/>
<path d="M257.607 282.204C257.076 282.204 256.811 281.806 256.811 281.408C256.811 280.876 257.209 280.611 257.607 280.611C258.138 280.611 258.403 281.009 258.403 281.408C258.403 281.806 258.005 282.204 257.607 282.204ZM257.607 281.275C257.474 281.275 257.474 281.275 257.607 281.275C257.474 281.408 257.607 281.54 257.607 281.54C257.607 281.408 257.74 281.408 257.607 281.275C257.607 281.275 257.74 281.275 257.607 281.275Z" fill="white"/>
<path d="M257.304 281.047L249.729 288.68L250.388 289.335L257.963 281.702L257.304 281.047Z" fill="white"/>
</g>
<defs>
<clipPath id="clip0_143_2824">
<rect width="535" height="300" fill="white"/>
</clipPath>
</defs>
</svg>
